<svg xmlns="http://www.w3.org/2000/svg" viewBox="0 0 355.47 433.85"><defs><style>.cls-1{fill:#fdfdfd;}.cls-2{fill:#6ef96e;}</style></defs><g id="Capa_2" data-name="Capa 2"><g id="Capa_1-2" data-name="Capa 1"><path class="cls-1" d="M259,355.5c-27.18,0-54.36.17-81.54,0-82.75-.6-145.39-54.34-167.77-119.29A181.33,181.33,0,0,1,.25,167.32c3-59.84,37.89-116.17,92.35-145.74A175.65,175.65,0,0,1,148.49,2.41,177.69,177.69,0,0,1,349.54,132.35a169,169,0,0,1,5.84,49.34c-1.34,40.62-14.53,76.91-40.22,108.53-2,2.48-4.07,4.93-6.11,7.38a1.14,1.14,0,0,0,0,1.72c.2.2.42.55.64.56,1.91.11,3.83.2,5.74.2,11.2,0,22.39,0,33.58,0a26.06,26.06,0,0,1,4.74.45c.51.09,1,.75,1.3,1.27a4.35,4.35,0,0,1,.35,1.84q0,24,0,48a3.28,3.28,0,0,1-.35,1.85c-.52.7-1.3,1.62-2,1.69-2.85.28-5.73.33-8.6.33q-42.69,0-85.38,0Zm-81.28-76.21c54.94.45,102.91-44.53,103.21-102.93.28-54.4-43.1-103.69-103.54-103.64a102.7,102.7,0,0,0-103.18,103C74.22,237.29,124.77,280,177.76,279.29Z"/><path class="cls-2" d="M270.44,433.85H197.58c-2.55,0-5.11,0-7.66-.05-3-.06-4-1-4-4.05q0-22.53,0-45.05c0-3,1-3.23,3.49-3.4,2.23-.15,4.48-.07,6.71-.07h148.6c2.55,0,5.11.07,7.65.27.45,0,1,.77,1.21,1.3a4.72,4.72,0,0,1,.27,1.88q0,22.05,0,44.09a12.38,12.38,0,0,1-.24,2.86c-.21.9-.58,1.9-1.74,2-2.86.12-5.73.25-8.59.25Q306.88,433.87,270.44,433.85Z"/><path class="cls-2" d="M178.32,131.76c22.29-.62,45.35,18.67,45.23,46.08a46.07,46.07,0,0,1-46.67,45.72c-26.24-.36-45.88-22.92-45.26-47.17C132.22,152.46,152.71,130.74,178.32,131.76Z"/></g></g></svg>
